<svg width="281" height="238" viewBox="0 0 281 238" fill="none" xmlns="http://www.w3.org/2000/svg">
<mask id="mask0_3020_868" style="mask-type:alpha" maskUnits="userSpaceOnUse" x="0" y="0" width="281" height="238">
<g clip-path="url(#clip0_3020_868)">
<path d="M45.4625 87.1842L36.315 90.6626C34.221 85.7448 29.9779 82.8062 24.6327 82.8062C16.422 82.8062 10.9115 89.4631 10.9115 99.0587C10.9115 108.654 16.422 115.251 24.6327 115.251C30.9698 115.251 35.3782 111.653 37.0314 105.356H22.3183V96.0601H45.5727V124.127H38.9049L37.2518 120.289C34.0557 123.468 29.2615 125.207 24.5776 125.207C10.0298 125.207 0.551758 113.212 0.551758 99.1187C0.551758 85.0252 10.0298 72.9707 24.7429 72.9707C33.7251 72.9707 41.4949 77.5886 45.4625 87.1842Z" fill="#007E72"/>
<path d="M75.7153 124.128L74.503 121.309C71.4722 123.888 68.0557 125.208 64.4739 125.208C56.6489 125.208 51.4139 119.031 51.4139 110.275V91.5032H61.2778V109.075C61.2778 113.273 63.0411 116.272 66.8434 116.272C70.6456 116.272 73.5662 113.093 73.5662 108.295V91.5032H83.43V124.128H75.7153Z" fill="#007E72"/>
<path d="M99.1339 107.815C99.1339 112.433 101.669 116.212 105.857 116.212C110.045 116.212 112.58 112.433 112.58 107.815C112.58 103.198 110.045 99.3593 105.857 99.3593C101.669 99.3593 99.1339 103.198 99.1339 107.815ZM113.571 94.3216L114.839 91.5029H122.498V124.128H114.839L113.571 121.309C110.706 124.428 106.794 125.207 104.369 125.207C95.7725 125.207 89.215 117.651 89.215 107.875C89.215 98.0999 95.7174 90.4834 104.369 90.4834C106.794 90.4234 110.706 91.203 113.571 94.3216Z" fill="#007E72"/>
<path d="M147.406 100.738C142.778 98.2792 138.204 100.798 138.204 106.555V124.127H128.34V91.5023H136L137.212 94.321C140.739 89.8231 146.414 89.4632 150.437 91.8621L147.406 100.738Z" fill="#007E72"/>
<path d="M162.891 107.815C162.891 112.313 165.371 116.211 169.614 116.211C173.857 116.211 176.337 112.313 176.337 107.815C176.337 103.317 173.857 99.3592 169.614 99.3592C165.371 99.3592 162.891 103.377 162.891 107.815ZM178.541 124.128L177.274 121.309C174.408 124.428 170.496 125.207 168.071 125.207C159.475 125.207 152.917 117.651 152.917 107.875C152.917 98.0997 159.42 90.4832 168.071 90.4832C170.22 90.4832 173.637 91.1429 176.282 93.4819V74.0508H186.146V124.128H178.541Z" fill="#007E72"/>
<path d="M192.923 91.5032H202.787V124.128H192.923V91.5032Z" fill="#007E72"/>
<path d="M218.382 107.815C218.382 112.433 220.917 116.212 225.105 116.212C229.293 116.212 231.827 112.433 231.827 107.815C231.827 103.198 229.293 99.3593 225.105 99.3593C220.917 99.3593 218.382 103.198 218.382 107.815ZM232.819 94.3216L234.032 91.5029H241.691V124.128H234.032L232.819 121.309C229.954 124.428 226.041 125.207 223.617 125.207C215.02 125.207 208.463 117.651 208.463 107.875C208.463 98.0999 214.965 90.4834 223.617 90.4834C226.041 90.4234 229.954 91.203 232.819 94.3216Z" fill="#007E72"/>
<path d="M279.383 105.357V124.128H269.519V106.556C269.519 102.358 267.756 99.3595 263.954 99.3595C260.152 99.3595 257.231 102.538 257.231 107.336V124.128H247.367V91.5031H255.027L256.239 94.3218C259.215 91.743 262.686 90.4236 266.268 90.4236C274.203 90.4236 279.383 96.6007 279.383 105.357Z" fill="#007E72"/>
<path d="M20.7199 140.14L18.5708 140.86C17.3585 137.022 14.6032 135.222 11.2969 135.222C6.66807 135.222 3.25155 139.061 3.25155 144.338C3.25155 149.676 6.66807 153.514 11.2969 153.514C14.6032 153.514 17.3585 151.715 18.5708 147.877L20.7199 148.596C19.2871 153.454 15.4849 155.853 11.352 155.853C4.95981 155.853 0.937134 150.575 0.937134 144.398C0.937134 138.221 5.01491 132.943 11.352 132.943C15.4298 132.884 19.232 135.282 20.7199 140.14Z" fill="#007E72"/>
<path d="M25.4041 143.619C26.5062 142.06 28.2145 140.861 30.5289 140.861C34.0005 140.861 36.2598 143.559 36.2598 147.338V155.254H34.0556V147.577C34.0556 144.639 32.5127 142.96 30.0329 142.96C27.7736 142.96 25.4592 144.999 25.4592 148.117V155.314H23.255V133.424H25.4592V143.619H25.4041Z" fill="#007E72"/>
<path d="M38.8487 141.34H41.0529V155.313H38.8487V141.34ZM41.4938 137.861C41.4938 138.821 40.8325 139.54 39.8957 139.54C39.014 139.54 38.3528 138.821 38.3528 137.861C38.3528 136.842 39.014 136.122 39.8957 136.122C40.8325 136.122 41.4938 136.842 41.4938 137.861Z" fill="#007E72"/>
<path d="M46.0132 133.363H43.809V155.253H46.0132V133.363Z" fill="#007E72"/>
<path d="M50.7511 148.357C50.7511 151.296 52.5695 153.755 55.3248 153.755C58.025 153.755 59.8985 151.356 59.8985 148.357C59.8985 145.358 58.025 142.96 55.3248 142.96C52.5695 142.96 50.7511 145.418 50.7511 148.357ZM60.4496 155.314L60.119 152.855C59.072 154.654 57.1433 155.854 55.1044 155.854C51.247 155.854 48.5469 152.435 48.5469 148.417C48.5469 144.399 51.247 140.98 55.1044 140.98C57.0331 140.98 58.8515 142.06 59.8985 143.679V133.544H62.1027V155.434H60.4496V155.314Z" fill="#007E72"/>
<path d="M77.5879 145.838L75.4939 146.378C74.9429 144.398 73.5101 142.959 71.3059 142.959C68.8262 142.959 66.7322 144.998 66.7322 148.357C66.7322 151.655 68.8262 153.754 71.3059 153.754C73.5101 153.754 74.9429 152.315 75.4939 150.336L77.5879 150.876C76.7062 153.934 74.3918 155.853 71.361 155.853C67.2282 155.853 64.4729 152.495 64.4729 148.417C64.4729 144.339 67.2282 140.98 71.361 140.98C74.3918 140.86 76.7062 142.779 77.5879 145.838Z" fill="#007E72"/>
<path d="M82.3266 148.356C82.3266 151.295 84.1451 153.754 86.9004 153.754C89.6005 153.754 91.4741 151.415 91.4741 148.356C91.4741 145.358 89.6005 142.959 86.9004 142.959C84.1451 142.959 82.3266 145.358 82.3266 148.356ZM91.6945 143.858L92.0252 141.339H93.6783V155.313H92.0252L91.6945 152.854C90.6475 154.653 88.7188 155.853 86.68 155.853C82.8226 155.853 80.1224 152.434 80.1224 148.416C80.1224 144.398 82.8226 140.98 86.68 140.98C88.7188 140.86 90.6475 142.059 91.6945 143.858Z" fill="#007E72"/>
<path d="M104.093 143.379C100.897 142.12 98.4722 144.458 98.4722 147.757V155.254H96.2679V141.28H97.9211L98.3068 143.559C99.4089 141.46 101.999 140.14 104.809 141.22L104.093 143.379Z" fill="#007E72"/>
<path d="M108.502 147.098H117.264C116.988 144.519 115.17 142.78 112.966 142.78C110.596 142.78 108.778 144.579 108.502 147.098ZM119.523 148.297L119.468 148.897H108.392C108.557 151.835 110.541 153.755 112.966 153.755C115.005 153.755 116.382 152.435 117.098 150.756L118.972 151.715C117.925 154.234 115.721 155.794 113.076 155.794C108.888 155.794 106.133 152.435 106.133 148.357C106.133 144.279 108.943 140.92 113.021 140.92C116.217 140.86 119.523 143.439 119.523 148.297Z" fill="#007E72"/>
<path d="M153.523 133.363V155.313H167.299V153.094H155.837V144.997H165.591V142.778H155.837V135.582H167.299V133.363H153.523Z" fill="#007E72"/>
<path d="M172.039 148.357C172.039 151.296 173.857 153.755 176.613 153.755C179.313 153.755 181.186 151.356 181.186 148.357C181.186 145.358 179.313 142.96 176.613 142.96C173.857 142.96 172.039 145.418 172.039 148.357ZM181.737 155.314L181.407 152.855C180.36 154.654 178.431 155.854 176.392 155.854C172.535 155.854 169.835 152.435 169.835 148.417C169.835 144.399 172.535 140.98 176.392 140.98C178.321 140.98 180.139 142.06 181.186 143.679V133.544H183.391V155.434H181.737V155.314Z" fill="#007E72"/>
<path d="M197.386 155.314L197.001 152.855C195.788 154.654 194.025 155.854 191.655 155.854C188.184 155.854 185.924 153.155 185.924 149.317V141.4H188.129V149.137C188.129 152.075 189.672 153.815 192.151 153.815C194.411 153.815 196.725 151.776 196.725 148.597V141.4H198.929V155.374H197.386V155.314Z" fill="#007E72"/>
<path d="M214.635 145.838L212.541 146.378C211.99 144.398 210.557 142.959 208.353 142.959C205.873 142.959 203.779 144.998 203.779 148.357C203.779 151.655 205.873 153.754 208.353 153.754C210.557 153.754 211.99 152.315 212.541 150.336L214.635 150.876C213.753 153.934 211.439 155.853 208.408 155.853C204.275 155.853 201.52 152.495 201.52 148.417C201.52 144.339 204.275 140.98 208.408 140.98C211.439 140.86 213.753 142.779 214.635 145.838Z" fill="#007E72"/>
<path d="M219.209 148.356C219.209 151.295 221.027 153.754 223.782 153.754C226.483 153.754 228.356 151.415 228.356 148.356C228.356 145.358 226.483 142.959 223.782 142.959C221.027 142.959 219.209 145.358 219.209 148.356ZM228.577 143.858L228.907 141.339H230.56V155.313H228.907L228.577 152.854C227.53 154.653 225.601 155.853 223.562 155.853C219.705 155.853 217.005 152.434 217.005 148.416C217.005 144.398 219.705 140.98 223.562 140.98C225.601 140.86 227.53 142.059 228.577 143.858Z" fill="#007E72"/>
<path d="M242.904 141.34V143.439H238.33V151.055C238.33 152.735 239.542 153.994 241.526 153.274L242.353 152.974L243.014 154.954L242.077 155.373C238.881 156.693 236.071 154.714 236.071 151.235V143.439H233.04V141.34H236.071V136.902H238.275V141.34H242.904Z" fill="#007E72"/>
<path d="M245.383 141.34H247.587V155.313H245.383V141.34ZM248.028 137.861C248.028 138.821 247.367 139.54 246.43 139.54C245.548 139.54 244.887 138.821 244.887 137.861C244.887 136.842 245.548 136.122 246.43 136.122C247.367 136.122 248.028 136.842 248.028 137.861Z" fill="#007E72"/>
<path d="M252.382 148.357C252.382 151.535 254.421 153.754 257.011 153.754C259.656 153.754 261.695 151.535 261.695 148.357C261.695 145.238 259.656 142.959 257.011 142.959C254.421 142.959 252.382 145.178 252.382 148.357ZM263.955 148.357C263.955 152.435 261.199 155.793 257.066 155.793C252.933 155.793 250.178 152.435 250.178 148.357C250.178 144.279 252.933 140.92 257.066 140.92C261.199 140.86 263.955 144.219 263.955 148.357Z" fill="#007E72"/>
<path d="M279.493 147.397V155.314H277.289V147.577C277.289 144.639 275.746 142.96 273.267 142.96C271.007 142.96 268.693 144.999 268.693 148.117V155.314H266.489V141.34H268.142L268.528 143.859C269.74 142.06 271.503 140.86 273.873 140.86C277.179 140.86 279.493 143.559 279.493 147.397Z" fill="#007E72"/>
<path d="M145.367 145.418L143.163 145.538C142.557 147.337 141.84 148.776 140.959 149.976L136.054 144.218C139.251 142.659 141.069 140.86 141.069 138.221C141.069 135.342 138.81 133.063 135.558 133.063C132.307 133.063 130.103 135.342 130.103 138.221C130.103 139.78 130.709 141.22 132.638 143.559C129.883 145.058 128.229 147.217 128.229 149.976C128.229 153.154 130.654 155.853 134.511 155.853C136.495 155.853 138.699 155.253 140.793 153.274L142.557 155.373H145.367L142.281 151.715C143.549 150.096 144.596 148.117 145.367 145.418ZM132.307 138.161C132.307 136.422 133.63 135.103 135.614 135.103C137.597 135.103 138.975 136.422 138.975 138.221C138.975 140.02 137.818 141.1 134.732 142.599C133.079 140.62 132.307 139.66 132.307 138.161ZM134.732 153.574C132.417 153.574 130.654 152.015 130.654 149.736C130.654 147.517 132.087 146.197 134.126 145.118L139.526 151.535C137.983 153.034 136.33 153.574 134.732 153.574Z" fill="#007E72"/>
<path d="M192.537 80.5276C191.821 77.2891 194.301 74.5903 197.221 73.8706C200.142 73.151 202.842 75.25 203.283 78.5485C203.724 82.0269 201.685 85.2054 198.764 85.9851C195.789 86.7647 193.254 83.8261 192.537 80.5276Z" fill="#F7ACB4"/>
</g>
</mask>
<g mask="url(#mask0_3020_868)">
<rect x="-68.1793" y="-82.2188" width="438" height="451.092" fill="white"/>
</g>
<defs>
<clipPath id="clip0_3020_868">
<rect width="280.981" height="237.594" fill="white"/>
</clipPath>
</defs>
</svg>
